# xmcd
#
# Track frame offsets: 
#        150
#        43352
#        82254
#        125200
#        159552
#        190757
#        213927
#        245200
#        280812
#        307752
#
# Disc length: 4436 seconds
#
# Revision: 3
# Processed by: cddbd v1.5.2PL0 Copyright (c) Steve Scherf et al.
# Submitted via: ExactAudioCopyFreeDBPlugin 1.0
#
DISCID=9511520a
DTITLE=Legends of Acid Jazz - Rusty Bryant - Vol. 2
DYEAR=1971
DGENRE=Jazz
TTITLE0=Fire-Eater (Bryant-Taylor)
TTITLE1=Free at Last (Longmire-Bryant)
TTITLE2=The Hooker (Leon Spencer)
TTITLE3=Mister S. (Spencer)
TTITLE4=Wildfire (Bryant-Mason)
TTITLE5=It's Impossible (Manzanero-Wayne)
TTITLE6=Riders On the Storm (The Doors)
TTITLE7=The Alobamo Kid (Bryant-Mason)
TTITLE8=If You Really Love Me (Wonder-Wright)
TTITLE9=All That I've Got (Preston-Troy)
EXTD=YEAR: 1971
EXTT0=
EXTT1=
EXTT2=
EXTT3=
EXTT4=
EXTT5=
EXTT6=
EXTT7=
EXTT8=
EXTT9=
PLAYORDER=
